<svg width="48" height="48" viewBox="0 0 48 48" fill="none" xmlns="http://www.w3.org/2000/svg">
<path d="M24 46.5C36.4264 46.5 46.5 36.4264 46.5 24C46.5 11.5736 36.4264 1.5 24 1.5C11.5736 1.5 1.5 11.5736 1.5 24C1.5 36.4264 11.5736 46.5 24 46.5Z" stroke="url(#paint0_linear)" stroke-width="3"/>
<mask id="mask0" mask-type="alpha" maskUnits="userSpaceOnUse" x="10" y="14" width="31" height="22">
<path d="M40.9756 24.5853C40.9756 26.525 39.4031 28.0975 37.4634 28.0975C35.5237 28.0975 33.9512 26.525 33.9512 24.5853C33.9512 22.6456 35.5237 21.0731 37.4634 21.0731C39.4031 21.0731 40.9756 22.6456 40.9756 24.5853Z" fill="#CA00CE"/>
<path fill-rule="evenodd" clip-rule="evenodd" d="M26.0854 17.561C26.9138 17.561 27.5854 18.2326 27.5854 19.061V30.1098C27.5854 30.9382 26.9138 31.6098 26.0854 31.6098C25.2569 31.6098 24.5854 30.9382 24.5854 30.1098V19.061C24.5854 18.2326 25.2569 17.561 26.0854 17.561Z" fill="#CA00CE"/>
<path fill-rule="evenodd" clip-rule="evenodd" d="M30.7683 18.7317C31.5967 18.7317 32.2683 19.4033 32.2683 20.2317V28.939C32.2683 29.7674 31.5967 30.439 30.7683 30.439C29.9399 30.439 29.2683 29.7674 29.2683 28.939V20.2317C29.2683 19.4033 29.9399 18.7317 30.7683 18.7317Z" fill="#CA00CE"/>
<path fill-rule="evenodd" clip-rule="evenodd" d="M21.4024 16.3904C22.2309 16.3904 22.9024 17.0619 22.9024 17.8904V31.2806C22.9024 32.109 22.2309 32.7806 21.4024 32.7806C20.574 32.7806 19.9024 32.109 19.9024 31.2806V17.8904C19.9024 17.0619 20.574 16.3904 21.4024 16.3904Z" fill="#CA00CE"/>
<path fill-rule="evenodd" clip-rule="evenodd" d="M16.7195 15.2195C17.5479 15.2195 18.2195 15.8911 18.2195 16.7195V32.4512C18.2195 33.2796 17.5479 33.9512 16.7195 33.9512C15.8911 33.9512 15.2195 33.2796 15.2195 32.4512V16.7195C15.2195 15.8911 15.8911 15.2195 16.7195 15.2195Z" fill="#CA00CE"/>
<path fill-rule="evenodd" clip-rule="evenodd" d="M12.0366 14.0488C12.865 14.0488 13.5366 14.7204 13.5366 15.5488V33.622C13.5366 34.4504 12.865 35.122 12.0366 35.122C11.2082 35.122 10.5366 34.4504 10.5366 33.622V15.5488C10.5366 14.7204 11.2082 14.0488 12.0366 14.0488Z" fill="#CA00CE"/>
</mask>
<g mask="url(#mask0)">
<path d="M9.36584 14.0487H40.9756V35.1219H9.36584V14.0487Z" fill="url(#paint1_linear)"/>
</g>
<defs>
<linearGradient id="paint0_linear" x1="24" y1="0" x2="24" y2="48" gradientUnits="userSpaceOnUse">
<stop stop-color="#1362AB"/>
<stop offset="1" stop-color="#AA5AAC"/>
</linearGradient>
<linearGradient id="paint1_linear" x1="25.1707" y1="14.0488" x2="25.1707" y2="35.122" gradientUnits="userSpaceOnUse">
<stop stop-color="#CA00CE"/>
<stop offset="1" stop-color="#41A2FC"/>
</linearGradient>
</defs>
</svg>
